<svg width="20" height="22" viewBox="0 0 20 22" fill="none" xmlns="http://www.w3.org/2000/svg">
<path d="M19.053 15.995L17.7705 14.15C17.5954 13.8992 17.5012 13.6009 17.5005 13.295V8C17.5005 6.01088 16.7103 4.10322 15.3038 2.6967C13.8973 1.29018 11.9896 0.5 10.0005 0.5C8.01136 0.5 6.10371 1.29018 4.69719 2.6967C3.29066 4.10322 2.50049 6.01088 2.50049 8V13.295C2.49976 13.6009 2.40555 13.8992 2.23049 14.15L0.947986 15.995C0.753796 16.2102 0.626099 16.477 0.580338 16.7632C0.534577 17.0494 0.572712 17.3427 0.690131 17.6077C0.807549 17.8727 0.999223 18.098 1.24197 18.2563C1.48472 18.4147 1.76815 18.4993 2.05799 18.5H6.32549C6.49762 19.3477 6.95753 20.1099 7.62729 20.6573C8.29705 21.2047 9.13547 21.5038 10.0005 21.5038C10.8655 21.5038 11.7039 21.2047 12.3737 20.6573C13.0434 20.1099 13.5033 19.3477 13.6755 18.5H17.943C18.2328 18.4993 18.5163 18.4147 18.759 18.2563C19.0017 18.098 19.1934 17.8727 19.3108 17.6077C19.4283 17.3427 19.4664 17.0494 19.4206 16.7632C19.3749 16.477 19.2472 16.2102 19.053 15.995ZM10.0005 20C9.53628 19.9987 9.08384 19.8538 8.70519 19.5853C8.32654 19.3167 8.04022 18.9377 7.88549 18.5H12.1155C11.9608 18.9377 11.6744 19.3167 11.2958 19.5853C10.9171 19.8538 10.4647 19.9987 10.0005 20ZM2.05799 17C2.09189 16.9685 2.12208 16.9333 2.14799 16.895L3.46049 15.005C3.81062 14.5034 3.99904 13.9067 4.00049 13.295V8C4.00049 6.4087 4.63263 4.88258 5.75785 3.75736C6.88306 2.63214 8.40919 2 10.0005 2C11.5918 2 13.1179 2.63214 14.2431 3.75736C15.3683 4.88258 16.0005 6.4087 16.0005 8V13.295C16.0019 13.9067 16.1904 14.5034 16.5405 15.005L17.853 16.895C17.8789 16.9333 17.9091 16.9685 17.943 17H2.05799Z" fill="#828282"/>
</svg>
