<svg width="24" height="24" viewBox="0 0 24 24" fill="none" xmlns="http://www.w3.org/2000/svg">
<path d="M6 22.5C5.88975 22.5 5.77875 22.4752 5.6745 22.4257C5.41575 22.3005 5.25 22.0387 5.25 21.75V18H3C1.7595 18 0.75 16.9905 0.75 15.75V3.75C0.75 2.5095 1.7595 1.5 3 1.5H21C22.2405 1.5 23.25 2.5095 23.25 3.75V15.75C23.25 16.9905 22.2405 18 21 18H11.8883L6.46875 22.3358C6.333 22.4445 6.16725 22.5 6 22.5ZM3 3C2.586 3 2.25 3.33675 2.25 3.75V15.75C2.25 16.1632 2.586 16.5 3 16.5H6C6.41475 16.5 6.75 16.8352 6.75 17.25V20.19L11.1562 16.6642C11.2898 16.5577 11.454 16.5 11.625 16.5H21C21.414 16.5 21.75 16.1632 21.75 15.75V3.75C21.75 3.33675 21.414 3 21 3H3Z" fill="#828282"/>
<path d="M18 9H6C5.58525 9 5.25 8.664 5.25 8.25C5.25 7.836 5.58525 7.5 6 7.5H18C18.4148 7.5 18.75 7.836 18.75 8.25C18.75 8.664 18.4148 9 18 9Z" fill="#828282"/>
<path d="M12 12H6C5.58525 12 5.25 11.664 5.25 11.25C5.25 10.836 5.58525 10.5 6 10.5H12C12.4148 10.5 12.75 10.836 12.75 11.25C12.75 11.664 12.4148 12 12 12Z" fill="#828282"/>
</svg>
