<svg width="16" height="16" viewBox="0 0 16 16" fill="none" xmlns="http://www.w3.org/2000/svg">
<path d="M15.708 14.2968L12.6113 11.1987C14.9284 8.10222 14.2966 3.71356 11.2001 1.39641C8.10357 -0.920736 3.7149 -0.288925 1.39775 2.80759C-0.919393 5.90411 -0.287582 10.2928 2.80893 12.6099C5.29631 14.4712 8.71267 14.4712 11.2001 12.6099L14.2982 15.708C14.6875 16.0973 15.3187 16.0973 15.708 15.708C16.0973 15.3187 16.0973 14.6874 15.708 14.2982L15.708 14.2968ZM7.03032 12.012C4.27829 12.012 2.04735 9.78102 2.04735 7.02898C2.04735 4.27695 4.27829 2.046 7.03032 2.046C9.78236 2.046 12.0133 4.27695 12.0133 7.02898C12.0104 9.77977 9.78115 12.009 7.03032 12.012Z" fill="#828282"/>
</svg>
