<svg width="16" height="17" viewBox="0 0 16 17" fill="none" xmlns="http://www.w3.org/2000/svg">
<g clip-path="url(#clip0_1_122)">
<path d="M7.99978 1.39062C4.07867 1.39062 0.888672 4.58062 0.888672 8.50174C0.888672 12.4229 4.07867 15.6128 7.99978 15.6128C11.9209 15.6128 15.1109 12.4229 15.1109 8.50174C15.1109 4.58062 11.9209 1.39062 7.99978 1.39062ZM7.58312 4.88108C6.94922 4.85384 6.32172 4.76476 5.72255 4.6199C5.81825 4.39312 5.92209 4.17534 6.03407 3.96896C6.49349 3.12239 7.05751 2.52832 7.58312 2.31315V4.88108ZM7.58312 5.71506V8.08507H4.98057C5.01725 7.16005 5.17491 6.24175 5.43566 5.40647C6.12663 5.58051 6.852 5.68587 7.58312 5.71506ZM7.58312 8.9184V11.2884C6.852 11.3176 6.12663 11.423 5.43566 11.597C5.17491 10.7617 5.01725 9.84342 4.98057 8.9184H7.58312ZM7.58312 12.1224V14.6904C7.05751 14.4752 6.49349 13.8811 6.03407 13.0345C5.92209 12.8281 5.81825 12.6104 5.72255 12.3836C6.32172 12.2387 6.94911 12.1496 7.58312 12.1224ZM8.41645 12.1224C9.05036 12.1496 9.67783 12.2387 10.277 12.3836C10.1813 12.6104 10.0775 12.8281 9.96547 13.0345C9.50609 13.8811 8.94209 14.4752 8.41645 14.6904V12.1224ZM8.41645 11.2884V8.9184H11.019C10.9823 9.84342 10.8247 10.7617 10.5639 11.597C9.87294 11.423 9.1476 11.3176 8.41645 11.2884ZM8.41645 8.08507V5.71506C9.1476 5.68587 9.87294 5.58051 10.5639 5.40647C10.8247 6.24175 10.9823 7.16005 11.019 8.08507H8.41645ZM8.41645 4.88108V2.31315C8.94209 2.52832 9.50609 3.12239 9.96547 3.96896C10.0775 4.17534 10.1813 4.39312 10.277 4.6199C9.67783 4.76476 9.05036 4.85384 8.41645 4.88108ZM10.6979 3.57151C10.4893 3.18695 10.2626 2.84798 10.0237 2.55881C10.8568 2.84332 11.6114 3.2985 12.2461 3.88227C11.8841 4.07617 11.494 4.24457 11.0837 4.38531C10.9672 4.10254 10.8385 3.83051 10.6979 3.57151ZM5.30165 3.57151C5.16103 3.83051 5.03233 4.10254 4.91591 4.38531C4.50553 4.24457 4.11545 4.07607 3.75347 3.88227C4.38813 3.2985 5.1428 2.84332 5.97591 2.55881C5.73698 2.84798 5.51041 3.18685 5.30165 3.57151ZM4.63401 5.16851C4.34961 6.07834 4.1824 7.07021 4.14638 8.08507H1.73622C1.82541 6.73079 2.34549 5.4923 3.16103 4.5064C3.61361 4.76595 4.10927 4.98796 4.63401 5.16851ZM4.14638 8.9184C4.1824 9.93338 4.34961 10.9251 4.63401 11.835C4.10927 12.0155 3.61361 12.2376 3.16103 12.4971C2.34549 11.5112 1.82541 10.2727 1.73622 8.9184H4.14638ZM4.91591 12.6182C5.03233 12.9009 5.16103 13.1729 5.30165 13.432C5.51041 13.8165 5.73698 14.1555 5.97591 14.4447C5.1428 14.1601 4.38813 13.7049 3.75358 13.1212C4.11534 12.9274 4.50553 12.7589 4.91591 12.6182ZM10.6979 13.432C10.8385 13.1729 10.9672 12.9009 11.0837 12.6182C11.494 12.7589 11.8841 12.9274 12.2461 13.1212C11.6114 13.7049 10.8568 14.1601 10.0237 14.4447C10.2626 14.1555 10.4891 13.8166 10.6979 13.432ZM11.3656 11.835C11.6499 10.9251 11.8172 9.93329 11.8532 8.9184H14.2633C14.1742 10.2727 13.6541 11.5112 12.8385 12.4971C12.3859 12.2376 11.8903 12.0155 11.3656 11.835ZM11.8532 8.08507C11.8172 7.07009 11.6499 6.07834 11.3656 5.16851C11.8903 4.98796 12.3859 4.76595 12.8385 4.5064C13.6541 5.4923 14.1742 6.73079 14.2633 8.08507H11.8532Z" fill="#F9FAFB"/>
</g>
<defs>
<clipPath id="clip0_1_122">
<rect width="16" height="16" fill="white" transform="translate(0 0.5)"/>
</clipPath>
</defs>
</svg>
